<svg width="512.000000" height="512.000000" viewBox="0 0 512 512" fill="none" xmlns="http://www.w3.org/2000/svg" xmlns:xlink="http://www.w3.org/1999/xlink">
	<desc>
			Created with Pixso.
	</desc>
	<defs>
		<clipPath id="clip9_20">
			<rect id="black" width="512.000000" height="512.000000" fill="white" fill-opacity="0"/>
		</clipPath>
	</defs>
	<rect id="black" width="512.000000" height="512.000000" fill="#12D6DF" fill-opacity="0"/>
	<g clip-path="url(#clip9_20)">
		<rect id="OvO" width="423.200012" height="185.781250" transform="translate(44.000000 163.000000)" fill="#FFFFFF" fill-opacity="0"/>
		<path id="OvO" d="M121 316.56C160.21 316.56 187.21 287.17 187.21 239.17C187.21 191.17 160.21 163 121 163C81.79 163 54.79 190.97 54.79 239.17C54.79 287.17 81.79 316.56 121 316.56ZM456.41 239.17C456.41 287.17 429.41 316.56 390.2 316.56C350.99 316.56 323.99 287.17 323.99 239.17C323.99 190.97 350.99 163 390.2 163C429.41 163 456.41 191.17 456.41 239.17ZM131.52 289.26C145.22 284.5 154.27 270.12 156.46 249.37L131.52 249.37L131.52 289.26ZM156.4 228.38C154.1 208.01 145.1 194.48 131.52 190.01L131.52 228.38L156.4 228.38ZM109.69 288.97L109.69 249.37L85.53 249.37C87.69 269.72 96.43 283.95 109.69 288.97ZM85.59 228.38L109.69 228.38L109.69 190.28C96.55 195 87.85 208.4 85.59 228.38ZM354.21 239.17C354.21 270.76 368.18 290.97 390.2 290.97C412.22 290.97 426.18 270.76 426.18 239.17C426.18 207.38 412.22 188.39 390.2 188.39C368.18 188.39 354.21 207.38 354.21 239.17ZM239.01 313.78L273 313.78L310.4 201.77L282.18 201.77L265.82 257.57C262.79 268.56 259.81 280.18 256.78 291.56L255.81 291.56C252.78 280.18 249.8 268.56 246.77 257.57L230.42 201.77L200.78 201.77L239.01 313.78ZM44 338.78L467.2 338.78L467.2 348.78L44 348.78L44 338.78Z" fill="#000000" fill-opacity="1.000000" fill-rule="evenodd"/>
	</g>
</svg>
